<?xml version="1.0" encoding="utf-8"?>
<!-- Generator: Adobe Illustrator 15.1.0, SVG Export Plug-In . SVG Version: 6.00 Build 0)  -->
<!DOCTYPE svg PUBLIC "-//W3C//DTD SVG 1.1//EN" "http://www.w3.org/Graphics/SVG/1.1/DTD/svg11.dtd">
<svg version="1.1" id="Layer_1" xmlns="http://www.w3.org/2000/svg" xmlns:xlink="http://www.w3.org/1999/xlink" x="0px" y="0px"
	 width="170px" height="50px" viewBox="0 0 170 50" enable-background="new 0 0 170 50" xml:space="preserve">
<g>
	<g>
		<path fill="#B9090B" d="M35.095,38.214c-2.403,0.272-4.805,0.567-7.205,0.881c-0.944-2.274-1.888-4.573-2.833-6.899
			c-4.367,0.462-8.729,0.976-13.084,1.539c-0.905,2.695-1.808,5.428-2.71,8.197c-2.329,0.404-4.655,0.829-6.979,1.272
			C6.51,30.468,10.782,18.6,15.075,7.413c2.337,0,4.674,0,7.012,0C26.431,18.245,30.76,28.445,35.095,38.214z M22.955,26.971
			c-1.491-3.874-2.982-7.822-4.476-11.854c-1.49,4.138-2.978,8.36-4.462,12.676C16.994,27.501,19.973,27.227,22.955,26.971z"/>
		<path fill="#B9090B" d="M38.731,7.413c4.04,0,8.08,0,12.119,0c2.733,0,4.816,0.186,6.248,0.551
			c1.924,0.497,3.572,1.374,4.942,2.625c1.371,1.252,2.412,2.78,3.124,4.586c0.712,1.806,1.065,4.035,1.058,6.692
			c-0.007,2.335-0.349,4.355-1.027,6.07c-0.831,2.094-2.011,3.814-3.543,5.174c-1.157,1.031-2.717,1.877-4.682,2.55
			c-1.47,0.499-3.432,0.836-5.887,1.024c-4.168,0.321-8.333,0.703-12.494,1.144C38.637,27.691,38.684,17.552,38.731,7.413z
			 M45.339,12.448c-0.03,6.572-0.061,13.144-0.091,19.715c1.652-0.124,3.305-0.24,4.958-0.351c1.855-0.121,3.195-0.293,4.019-0.525
			c1.078-0.301,1.974-0.749,2.688-1.35c0.713-0.601,1.296-1.554,1.75-2.86c0.454-1.306,0.684-3.065,0.692-5.286
			c0.008-2.219-0.21-3.918-0.654-5.1c-0.444-1.181-1.068-2.101-1.873-2.759c-0.804-0.658-1.826-1.1-3.065-1.322
			c-0.926-0.173-2.741-0.245-5.444-0.207C47.326,12.418,46.333,12.433,45.339,12.448z"/>
		<path fill="#B9090B" d="M71.873,35.575c0.019-9.388,0.038-18.775,0.057-28.162c7.504,0,15.009,0,22.513,0
			c0.002,1.583,0.004,3.165,0.006,4.748c-5.297-0.019-10.596-0.022-15.894-0.009c-0.002,2.21-0.004,4.42-0.007,6.631
			c4.578-0.028,9.156-0.026,13.734,0.004c0.002,1.58,0.004,3.16,0.006,4.741c-4.582-0.043-9.164-0.045-13.745-0.006
			c-0.004,3.969-0.008,7.937-0.012,11.904C76.312,35.459,74.092,35.509,71.873,35.575z"/>
		<path fill="#B9090B" d="M100.154,35.635c-0.021-9.33-0.043-18.661-0.064-27.991c2.211,0,4.42,0.001,6.631,0.002
			c0.025,7.821,0.049,15.643,0.074,23.463c5.512,0.227,11.02,0.539,16.523,0.937c0.008,1.664,0.016,3.328,0.021,4.991
			C115.623,36.366,107.891,35.898,100.154,35.635z"/>
		<path fill="#B9090B" d="M127.871,37.454c-0.045-10.015-0.092-20.027-0.139-30.041c2.209,0,4.42,0,6.631,0
			c0.047,10.246,0.094,20.491,0.143,30.737C132.295,37.9,130.084,37.67,127.871,37.454z"/>
		<path fill="#B9090B" d="M137.482,38.496c3.713-4.96,7.424-10.105,11.139-15.511c-3.402-5.426-6.814-10.598-10.227-15.572
			c2.584,0,5.168,0,7.752,0c2.209,3.451,4.414,7,6.617,10.663c2.137-3.447,4.276-6.997,6.42-10.663c2.562,0,5.123,0,7.684,0
			c-3.402,5.764-6.793,11.218-10.176,16.422c3.744,6.095,7.477,12.524,11.184,19.369c-2.641-0.504-5.287-0.983-7.936-1.438
			c-2.418-4.375-4.844-8.586-7.275-12.654c-2.416,3.578-4.83,7.041-7.242,10.406C142.777,39.152,140.131,38.812,137.482,38.496z"/>
	</g>
</g>
</svg>
