<?xml version="1.0" encoding="utf-8"?>
<!-- Generator: Adobe Illustrator 15.1.0, SVG Export Plug-In . SVG Version: 6.00 Build 0)  -->
<!DOCTYPE svg PUBLIC "-//W3C//DTD SVG 1.1//EN" "http://www.w3.org/Graphics/SVG/1.1/DTD/svg11.dtd">
<svg version="1.1" id="Layer_1" xmlns="http://www.w3.org/2000/svg" xmlns:xlink="http://www.w3.org/1999/xlink" x="0px" y="0px"
	 width="60px" height="60px" viewBox="0 0 60 60" enable-background="new 0 0 60 60" xml:space="preserve">
<g>
	<circle fill="#8B4928" cx="29.658" cy="29.81" r="22.5"/>
	<path fill-rule="evenodd" clip-rule="evenodd" fill="#FFFFFF" d="M32.529,33.818c0.756-2.504,2.733-4.731,3.403-4.217v-1.37
		c0.527-0.633,0.557,3.085,1.654,0.13c0.724-1.947,1.469-4.907,0.421-6.526c-0.375-0.581-0.575-1.067-1.802,0.013
		c-0.157-1.039-0.191-4.285-0.736-5.26c-0.462-0.827-0.995-0.827-0.87-1.267c0.06-0.209,0.909,0.313,0.826,0.084
		c-0.587-1.625-2.813-1.769-3.479-1.829c-0.138-0.759,1.628-0.951,1.375-0.994c-0.309-0.049-1.115-0.301-3.107,0.808
		c-0.177-1.6-1.002-2.321-1.193-2.321c-0.206,0,0.637,1.251,0.039,2.315c-0.165,0.292-1.924-1.175-2.247-1.141
		c-0.23,0.026,0.894,1.02,0.547,1.308c-0.667,0.061-3.103,0.375-3.435,1.875c-0.084,0.376,0.542-0.185,0.637-0.011
		c0.188,0.345-0.509,0.596-0.783,1.387c-0.391,1.127-0.505,3.961-0.669,5.045c-1.11-1.102-1.427-0.593-1.802-0.013
		c-1.048,1.619-0.303,4.579,0.421,6.526c1.098,2.955,1.127-0.764,1.654-0.13v1.37c0.5-0.459,3.072,1.799,3.219,4.226
		c0.118,1.956-1.248,2.724-1.276,6.319c-0.038,4.784,3.335,6.49,5.747,6.274c2.849-0.256,4.793-2.154,4.793-2.154
		c0.596,0.973,2.782-0.397,2.008-1.422c-0.648-0.858-0.654,0.071-1.317-0.858c-0.418-0.585-0.126-0.961-0.648-1.506
		c-0.819-0.854-2.353,0.899-1.553,1.652c0,0-2.558,2.062-4.256,0.59c-0.946-0.819-0.916-2.617-0.276-4.082
		C30.564,36.94,32.027,35.48,32.529,33.818z"/>
	<g>
		<path fill-rule="evenodd" clip-rule="evenodd" fill="#FFFFFF" d="M22.919,30.284c-0.251,0.23-3.449,3.263-5.374,3.515
			c-2.259,0.296-5.786-3.097-5.786-5.194c0-1.772,2.963-4.344,4.538-4.365c1.197-0.017,2.568,0.841,3.443,1.714
			c-0.574-1.274-2.028-3.013-3.513-3.045c-2.551-0.054-7.68,2.925-7.68,6.109c0,4.11,5.839,9.061,8.689,9.122
			c3.548,0.077,6.347-1.715,7.522-2.649c0.48-0.382,0.899-0.88,0.899-1.4s-0.027-1.15-0.774-2.364
			C24.048,30.368,23.17,30.054,22.919,30.284z"/>
		<path fill-rule="evenodd" clip-rule="evenodd" fill="#FFFFFF" d="M36.396,30.284c0.251,0.23,3.45,3.263,5.374,3.515
			c2.259,0.296,5.786-3.097,5.786-5.194c0-1.772-2.963-4.344-4.537-4.365c-1.198-0.017-2.568,0.841-3.444,1.714
			c0.575-1.274,2.029-3.013,3.513-3.045c2.552-0.054,7.68,2.925,7.68,6.109c0,4.11-5.839,9.061-8.689,9.122
			c-3.548,0.077-6.346-1.715-7.522-2.649c-0.48-0.382-0.928-0.881-0.928-1.4c0-0.521,0-0.814,0.673-2.07
			C35.049,30.618,36.145,30.054,36.396,30.284z"/>
	</g>
	<g>
		<ellipse fill-rule="evenodd" clip-rule="evenodd" fill="#8B4928" cx="25.015" cy="26.458" rx="0.962" ry="1.548"/>
		<ellipse fill-rule="evenodd" clip-rule="evenodd" fill="#8B4928" cx="34.3" cy="26.458" rx="0.962" ry="1.548"/>
	</g>
</g>
</svg>
