<?xml version="1.0" encoding="utf-8"?>
<!-- Generator: Adobe Illustrator 15.1.0, SVG Export Plug-In . SVG Version: 6.00 Build 0)  -->
<!DOCTYPE svg PUBLIC "-//W3C//DTD SVG 1.1//EN" "http://www.w3.org/Graphics/SVG/1.1/DTD/svg11.dtd">
<svg version="1.1" id="Layer_1" xmlns="http://www.w3.org/2000/svg" xmlns:xlink="http://www.w3.org/1999/xlink" x="0px" y="0px"
	 width="400px" height="400px" viewBox="0 0 400 400" enable-background="new 0 0 400 400" xml:space="preserve">
<g>
	<path fill="#FFFFFF" d="M115.699,91.593V307.85l219.57-113.188L115.699,91.593z M136.512,125.464l148.141,69.539L136.512,271.37
		V125.464z"/>
	<g>
		<path d="M116.002,92.08l1.4,215.77l-2.483-1.514L333.87,191.947l0.102,5.479c-18.356-8.465-36.591-17.187-54.876-25.803
			l-27.358-13.07l-27.325-13.142c-18.22-8.754-36.356-17.686-54.519-26.563l-13.619-6.664l-13.577-6.752
			C133.79,101.001,124.876,96.581,116.002,92.08z M115.827,91.321c9.281,4.012,18.521,8.113,27.768,12.2l13.868,6.131l13.828,6.22
			c18.433,8.3,36.891,16.547,55.266,24.971l27.567,12.625l27.534,12.697c18.31,8.562,36.67,17.018,54.909,25.731l5.608,2.679
			l-5.507,2.801L116.479,309.363l-2.501,1.272l0.018-2.786l1.406-216.712L115.827,91.321z"/>
		<path d="M136.232,125.006l74.828,34.209l37.207,17.02l37.166,17.104l3.377,1.555l-3.315,1.741l-73.777,38.753l-36.853,19.445
			l-18.443,9.689c-6.162,3.203-12.293,6.465-18.48,9.619l-4.566,2.328l0.018-5.101l0.064-18.238
			c0.028-6.079,0.087-12.159,0.165-18.238l0.211-18.238l0.303-18.238c0.225-12.159,0.48-24.318,0.822-36.477
			c0.144-6.08,0.374-12.159,0.573-18.238c0.198-6.08,0.404-12.159,0.681-18.238L136.232,125.006z M136.83,125.95
			c0.265,5.917,0.469,11.834,0.662,17.752c0.2,6.08,0.43,12.159,0.573,18.238c0.342,12.159,0.598,24.317,0.822,36.477l0.304,18.238
			l0.211,18.238c0.077,6.079,0.137,12.159,0.165,18.238l0.064,18.238l-4.549-2.772c6.158-3.21,12.372-6.312,18.556-9.473
			l18.592-9.402l37.217-18.738l74.364-37.614l0.062,3.296l-36.904-17.665l-36.864-17.75L136.83,125.95z"/>
	</g>
</g>
<g>
	<path fill="#FFFFFF" d="M198.731,5.285C92.218,5.285,5.873,91.63,5.873,198.143C5.873,304.654,92.218,391,198.731,391
		c106.512,0,192.857-86.346,192.857-192.857C391.588,91.63,305.243,5.285,198.731,5.285z M198.73,371.631
		c-95.815,0-173.489-77.674-173.489-173.489c0-95.814,77.674-173.488,173.489-173.488c95.815,0,173.489,77.674,173.489,173.488
		C372.219,293.957,294.545,371.631,198.73,371.631z"/>
	<g>
		<path d="M198.732,5.584C173.518,5.568,148.31,10.52,125.027,20.2c-23.272,9.708-44.511,24.143-62.222,42.017
			c-17.688,17.907-31.793,39.286-41.26,62.536c-9.521,23.231-14.315,48.334-14.172,73.39c0.058,25.057,5.053,50.078,14.729,73.159
			c9.644,23.092,23.903,44.218,41.636,61.833c17.722,17.628,38.911,31.738,62.006,41.221c23.084,9.515,48.046,14.337,72.986,14.245
			c24.941-0.078,49.835-5.069,72.791-14.716c22.968-9.613,43.973-23.816,61.48-41.471c17.556-17.61,31.581-38.691,41.071-61.645
			c9.572-22.926,14.493-47.762,14.516-72.626c0.134-24.864-4.604-49.756-13.938-72.865c-9.29-23.125-23.177-44.46-40.683-62.371
			c-17.496-17.911-38.555-32.441-61.702-42.298c-11.578-4.902-23.647-8.69-35.99-11.196C223.93,6.914,211.336,5.642,198.732,5.584z
			 M198.73,4.985c25.287-0.111,50.61,4.734,74.105,14.249c23.515,9.465,45.201,23.595,63.401,41.403
			c18.213,17.785,32.985,39.196,43.018,62.732c4.992,11.772,8.851,24.045,11.409,36.597c2.552,12.552,3.856,25.36,3.925,38.177
			c0.057,25.633-4.94,51.301-14.758,75.014c-9.831,23.708-24.466,45.373-42.629,63.457c-18.188,18.066-39.93,32.522-63.624,42.23
			c-23.682,9.743-49.292,14.669-74.848,14.557c-25.557-0.058-51.098-5.154-74.653-15.028c-23.567-9.84-45.123-24.389-63.097-42.48
			c-17.986-18.08-32.386-39.7-42.065-63.27c-9.712-23.558-14.635-49.04-14.542-74.48c0.109-25.441,5.233-50.842,15.101-74.249
			c9.855-23.412,24.409-44.778,42.441-62.567c17.985-17.845,39.493-32.069,62.882-41.684C148.151,9.933,173.447,4.967,198.73,4.985z
			"/>
		<path d="M198.729,371.931c-45.567,0.197-90.772-18.482-123.12-50.668c-16.238-15.997-29.353-35.217-38.238-56.285
			c-8.894-21.065-13.52-43.931-13.63-66.836c-0.091-22.904,4.334-45.851,13.073-67.066c8.708-21.227,21.669-40.7,37.862-56.987
			c16.182-16.298,35.591-29.408,56.815-38.277c21.219-8.9,44.204-13.499,67.254-13.557c22.989-0.111,46.086,4.317,67.419,13.086
			c21.352,8.738,40.945,21.755,57.341,38.027c16.37,16.292,29.565,35.811,38.427,57.175c8.843,21.38,13.343,44.484,13.287,67.619
			c-0.068,11.511-1.251,23.078-3.557,34.379c-2.312,11.308-5.801,22.361-10.308,32.963c-9.062,21.192-22.396,40.457-38.814,56.449
			c-16.408,16.015-35.948,28.705-57.119,37.2C244.267,367.693,221.48,372.04,198.729,371.931z M198.731,371.331
			c11.337-0.057,22.663-1.207,33.763-3.46c11.1-2.259,21.949-5.678,32.357-10.095c20.804-8.887,39.716-21.977,55.419-38.094
			c15.713-16.119,28.161-35.307,36.48-56.089c8.361-20.775,12.601-43.104,12.469-65.471c-0.024-22.29-4.446-44.618-13.046-65.193
			c-8.52-20.61-21.105-39.544-36.868-55.363c-15.715-15.86-34.573-28.625-55.197-37.268c-20.621-8.672-42.957-13.166-65.393-13.247
			c-22.374-0.09-44.822,4.234-65.558,12.775c-20.751,8.512-39.794,21.184-55.724,37.017c-15.939,15.823-28.76,34.802-37.433,55.551
			c-8.703,20.739-13.2,43.225-13.26,65.745c-0.141,22.52,4.155,45.087,12.703,65.977c8.496,20.906,21.163,40.139,37.057,56.253
			c15.918,16.081,35.01,29.077,55.939,37.814C153.381,366.892,176.053,371.346,198.731,371.331z"/>
	</g>
</g>
</svg>
