<?xml version="1.0" encoding="utf-8"?>
<!-- Generator: Adobe Illustrator 15.1.0, SVG Export Plug-In . SVG Version: 6.00 Build 0)  -->
<!DOCTYPE svg PUBLIC "-//W3C//DTD SVG 1.1//EN" "http://www.w3.org/Graphics/SVG/1.1/DTD/svg11.dtd">
<svg version="1.1" id="Layer_1" xmlns="http://www.w3.org/2000/svg" xmlns:xlink="http://www.w3.org/1999/xlink" x="0px" y="0px"
	 width="155px" height="170px" viewBox="0 0 155 170" enable-background="new 0 0 155 170" xml:space="preserve">
<g>
	<path fill="#EFEAE8" stroke="#000000" stroke-width="0.5" stroke-miterlimit="10" d="M-108.501,2.444
		c-42.558,0-77.057,34.499-77.057,77.056c0,42.557,34.499,77.057,77.057,77.057c42.556,0,77.06-34.5,77.06-77.057
		C-31.441,36.943-65.945,2.444-108.501,2.444z M-108.503,136.771c-31.629,0-57.27-25.642-57.27-57.272
		c0-31.629,25.641-57.27,57.27-57.27S-51.23,47.87-51.23,79.499C-51.23,111.13-76.874,136.771-108.503,136.771z"/>
	<polygon fill="#EFEAE8" stroke="#000000" stroke-width="0.5" stroke-miterlimit="10" points="-140.276,77.213 -110.976,47.251 
		-104.507,47.251 -104.507,63.329 -76.725,63.329 -76.725,96.146 -104.125,96.146 -104.125,111.747 -110.594,111.747 
		-140.276,81.97 	"/>
</g>
<polygon fill="#FFFFFF" points="205,83 313.5,27 313.5,136.5 "/>
<g>
	<line stroke="#FFFFFF" stroke-width="25" stroke-miterlimit="10" x1="196.5" y1="-109.5" x2="196.5" y2="0"/>
	<line stroke="#FFFFFF" stroke-width="25" stroke-miterlimit="10" x1="249.5" y1="-109.5" x2="249.5" y2="0"/>
</g>
<rect x="21" y="47.251" fill="#FFFFFF" width="116" height="64.496"/>
<g>
	<g>
		<path fill="#FFFFFF" d="M12,61c-0.417-2-0.752-4-1.008-6c-0.292-2-0.497-4-0.693-6c-0.367-4-0.59-8-0.706-12l-0.068-2.343
			L12,34.593c6.083-0.158,12.167-0.112,18.25,0.239c3.042,0.174,6.083,0.415,9.125,0.757C42.417,35.95,45.458,36.346,48.5,37
			c-3.042,0.654-6.083,1.05-9.125,1.411c-3.042,0.342-6.083,0.583-9.125,0.757c-6.083,0.351-12.167,0.396-18.25,0.239L14.407,37
			c-0.116,4-0.339,8-0.706,12c-0.196,2-0.401,4-0.693,6C12.752,57,12.417,59,12,61z"/>
	</g>
	<g>
		<path fill="#FFFFFF" d="M145,94.87c0.417,2.219,0.752,4.438,1.009,6.657c0.291,2.22,0.497,4.438,0.692,6.657
			c0.367,4.438,0.59,8.877,0.706,13.315l0.062,2.35L145,123.907c-6.75,0.158-13.5,0.112-20.25-0.239
			c-3.375-0.173-6.75-0.414-10.125-0.757c-3.375-0.361-6.75-0.757-10.125-1.411c3.375-0.654,6.75-1.05,10.125-1.411
			c3.375-0.343,6.75-0.584,10.125-0.757c6.75-0.352,13.5-0.397,20.25-0.239l-2.407,2.407c0.116-4.438,0.339-8.877,0.706-13.315
			c0.195-2.219,0.401-4.438,0.692-6.657C144.248,99.309,144.583,97.089,145,94.87z"/>
	</g>
	<g>
		<path fill="#FFFFFF" d="M12,94.87c0.417,2.219,0.752,4.438,1.008,6.657c0.292,2.22,0.497,4.438,0.693,6.657
			c0.367,4.438,0.59,8.877,0.706,13.315L12,119.093c6.75-0.158,13.5-0.112,20.25,0.239c3.375,0.173,6.75,0.414,10.125,0.757
			c3.375,0.361,6.75,0.757,10.125,1.411c-3.375,0.654-6.75,1.05-10.125,1.411c-3.375,0.343-6.75,0.584-10.125,0.757
			c-6.75,0.352-13.5,0.397-20.25,0.239l-2.469-0.058l0.062-2.35c0.116-4.438,0.339-8.877,0.706-13.315
			c0.196-2.219,0.401-4.438,0.693-6.657C11.248,99.309,11.583,97.089,12,94.87z"/>
	</g>
	<g>
		<path fill="#FFFFFF" d="M145,63.63c-0.417-2.219-0.752-4.438-1.009-6.657c-0.291-2.219-0.497-4.438-0.692-6.658
			c-0.367-4.438-0.59-8.876-0.706-13.315L145,39.407c-6.75,0.158-13.5,0.112-20.25-0.239c-3.375-0.174-6.75-0.415-10.125-0.757
			c-3.375-0.361-6.75-0.757-10.125-1.411c3.375-0.654,6.75-1.05,10.125-1.411c3.375-0.342,6.75-0.583,10.125-0.757
			c6.75-0.351,13.5-0.396,20.25-0.239l2.469,0.058L147.407,37c-0.116,4.438-0.339,8.877-0.706,13.315
			c-0.195,2.219-0.401,4.438-0.692,6.658C145.752,59.191,145.417,61.411,145,63.63z"/>
	</g>
</g>
</svg>
