<?xml version="1.0" encoding="utf-8"?>
<!-- Generator: Adobe Illustrator 15.1.0, SVG Export Plug-In . SVG Version: 6.00 Build 0)  -->
<!DOCTYPE svg PUBLIC "-//W3C//DTD SVG 1.1//EN" "http://www.w3.org/Graphics/SVG/1.1/DTD/svg11.dtd">
<svg version="1.1" id="Layer_1" xmlns="http://www.w3.org/2000/svg" xmlns:xlink="http://www.w3.org/1999/xlink" x="0px" y="0px"
	 width="155px" height="170px" viewBox="0 0 155 170" enable-background="new 0 0 155 170" xml:space="preserve">
<g>
	<path fill="#EFEAE8" stroke="#000000" stroke-width="0.5" stroke-miterlimit="10" d="M-108.501,2.444
		c-42.558,0-77.057,34.499-77.057,77.056c0,42.557,34.499,77.057,77.057,77.057c42.556,0,77.06-34.5,77.06-77.057
		C-31.441,36.943-65.945,2.444-108.501,2.444z M-108.503,136.771c-31.629,0-57.27-25.642-57.27-57.272
		c0-31.629,25.641-57.27,57.27-57.27S-51.23,47.87-51.23,79.499C-51.23,111.13-76.874,136.771-108.503,136.771z"/>
	<polygon fill="#EFEAE8" stroke="#000000" stroke-width="0.5" stroke-miterlimit="10" points="-140.276,77.213 -110.976,47.251 
		-104.507,47.251 -104.507,63.329 -76.725,63.329 -76.725,96.146 -104.125,96.146 -104.125,111.747 -110.594,111.747 
		-140.276,81.97 	"/>
</g>
<polygon fill="#FFFFFF" points="19,87.5 127.5,31.5 127.5,141 "/>
</svg>
