<?xml version="1.0" encoding="utf-8"?>
<!-- Generator: Adobe Illustrator 15.1.0, SVG Export Plug-In . SVG Version: 6.00 Build 0)  -->
<!DOCTYPE svg PUBLIC "-//W3C//DTD SVG 1.1//EN" "http://www.w3.org/Graphics/SVG/1.1/DTD/svg11.dtd">
<svg version="1.1" id="Layer_1" xmlns="http://www.w3.org/2000/svg" xmlns:xlink="http://www.w3.org/1999/xlink" x="0px" y="0px"
	 width="155px" height="170px" viewBox="0 0 155 170" enable-background="new 0 0 155 170" xml:space="preserve">
<g>
	<path fill="#EFEAE8" stroke="#000000" stroke-width="0.5" stroke-miterlimit="10" d="M77.499,7.944
		C34.941,7.944,0.442,42.443,0.442,85c0,42.557,34.499,77.057,77.057,77.057c42.556,0,77.06-34.5,77.06-77.057
		C154.559,42.443,120.055,7.944,77.499,7.944z M77.497,142.271c-31.629,0-57.27-25.642-57.27-57.272
		c0-31.629,25.641-57.27,57.27-57.27s57.272,25.641,57.272,57.27C134.77,116.63,109.126,142.271,77.497,142.271z"/>
	<polygon fill="#EFEAE8" stroke="#000000" stroke-width="0.5" stroke-miterlimit="10" points="45.724,82.713 75.024,52.751 
		81.493,52.751 81.493,68.829 109.275,68.829 109.275,101.646 81.875,101.646 81.875,117.247 75.406,117.247 45.724,87.47 	"/>
</g>
</svg>
