<?xml version="1.0" encoding="utf-8"?>
<!-- Generator: Adobe Illustrator 15.1.0, SVG Export Plug-In . SVG Version: 6.00 Build 0)  -->
<!DOCTYPE svg PUBLIC "-//W3C//DTD SVG 1.1//EN" "http://www.w3.org/Graphics/SVG/1.1/DTD/svg11.dtd">
<svg version="1.1" id="Layer_1" xmlns="http://www.w3.org/2000/svg" xmlns:xlink="http://www.w3.org/1999/xlink" x="0px" y="0px"
	 width="155px" height="170px" viewBox="0 0 155 170" enable-background="new 0 0 155 170" xml:space="preserve">
<polygon fill="#FFFFFF" points="21.031,60.666 45.221,60.666 67.616,40.848 76.496,40.848 76.496,129.152 67.616,129.152 
	45.436,108.682 21.031,108.682 "/>
<g>
	<path fill="#FFFFFF" d="M90.5,38.8c4.738,7.063,8.739,14.432,12.519,21.895c3.75,7.475,7.21,15.069,10.423,22.768
		c3.214,7.697,6.17,15.503,8.837,23.429c2.64,7.937,5.052,15.969,6.722,24.31c-4.747-7.059-8.751-14.428-12.528-21.891
		c-3.749-7.475-7.21-15.069-10.413-22.771c-3.204-7.702-6.16-15.507-8.827-23.433C94.594,55.167,92.179,47.137,90.5,38.8z"/>
</g>
<g>
	<path fill="#FFFFFF" d="M129,38.8c-1.679,8.337-4.094,16.368-6.731,24.306c-2.667,7.926-5.623,15.731-8.827,23.433
		c-3.203,7.702-6.664,15.297-10.413,22.771c-3.777,7.463-7.781,14.832-12.528,21.891c1.67-8.341,4.082-16.373,6.722-24.31
		c2.667-7.926,5.623-15.731,8.837-23.429c3.213-7.698,6.673-15.293,10.423-22.768C120.261,53.232,124.262,45.863,129,38.8z"/>
</g>
</svg>
