<?xml version="1.0" encoding="utf-8"?>
<!-- Generator: Adobe Illustrator 15.1.0, SVG Export Plug-In . SVG Version: 6.00 Build 0)  -->
<!DOCTYPE svg PUBLIC "-//W3C//DTD SVG 1.1//EN" "http://www.w3.org/Graphics/SVG/1.1/DTD/svg11.dtd">
<svg version="1.1" id="Layer_1" xmlns="http://www.w3.org/2000/svg" xmlns:xlink="http://www.w3.org/1999/xlink" x="0px" y="0px"
	 width="155px" height="170px" viewBox="0 0 155 170" enable-background="new 0 0 155 170" xml:space="preserve">
<polygon fill="#FFFFFF" points="21.031,60.666 45.221,60.666 67.616,40.848 76.496,40.848 76.496,129.152 67.616,129.152 
	45.436,108.682 21.031,108.682 "/>
<g>
	<path fill="#FFFFFF" d="M85.365,56.699c4.734,2.93,8.553,7.162,11.51,11.979c2.92,4.837,4.894,10.487,5.164,16.42
		c0.312,5.919-1.278,11.98-4.353,16.9c-3.069,4.938-7.382,8.811-12.321,11.302c2.987-4.656,5.679-9.113,7.397-13.763
		c1.749-4.627,2.505-9.353,2.286-14.122c-0.212-4.771-1.37-9.579-3.109-14.345C90.195,66.291,87.941,61.57,85.365,56.699z"/>
</g>
<g>
	<path fill="#FFFFFF" d="M96.576,40.277c3.537,2.364,6.575,5.397,9.339,8.651c2.746,3.278,5.144,6.88,7.156,10.724
		c4.008,7.681,6.41,16.441,6.491,25.356c0.129,8.911-2.153,17.816-6.255,25.504c-4.118,7.696-9.854,14.288-16.731,19.208
		c4.04-7.421,7.765-14.593,10.245-22.038c2.52-7.411,3.827-14.982,3.745-22.582c-0.067-7.599-1.51-15.209-3.981-22.682
		C104.11,54.932,100.716,47.605,96.576,40.277z"/>
</g>
<g>
	<path fill="#FFFFFF" d="M112.869,27.646c2.111,1.63,4.045,3.489,5.854,5.451c1.821,1.957,3.509,4.036,5.108,6.19
		c3.183,4.319,5.928,8.989,8.222,13.907c4.562,9.834,7.242,20.757,7.403,31.842c0.2,11.075-2.224,22.212-6.892,32.093
		c-4.68,9.881-11.396,18.582-19.695,25.227c2.307-4.8,4.589-9.439,6.548-14.15c1.974-4.697,3.703-9.405,5.067-14.162
		c2.775-9.498,4.119-19.156,3.976-28.844c-0.136-9.688-1.742-19.391-4.478-28.977C121.244,46.617,117.498,37.16,112.869,27.646z"/>
</g>
</svg>
