<?xml version="1.0" encoding="utf-8"?>
<!-- Generator: Adobe Illustrator 15.1.0, SVG Export Plug-In . SVG Version: 6.00 Build 0)  -->
<!DOCTYPE svg PUBLIC "-//W3C//DTD SVG 1.1//EN" "http://www.w3.org/Graphics/SVG/1.1/DTD/svg11.dtd">
<svg version="1.1" id="Layer_1" xmlns="http://www.w3.org/2000/svg" xmlns:xlink="http://www.w3.org/1999/xlink" x="0px" y="0px"
	 width="155px" height="170px" viewBox="0 0 155 170" enable-background="new 0 0 155 170" xml:space="preserve">
<polygon fill="#FFFFFF" points="21.031,60.666 45.221,60.666 67.616,40.848 76.496,40.848 76.496,129.152 67.616,129.152 
	45.436,108.682 21.031,108.682 "/>
<g>
	<path fill="#FFFFFF" d="M85.365,56.699c4.734,2.93,8.553,7.162,11.51,11.979c2.92,4.837,4.894,10.487,5.164,16.42
		c0.312,5.919-1.278,11.98-4.353,16.9c-3.069,4.938-7.382,8.811-12.321,11.302c2.987-4.656,5.679-9.113,7.397-13.763
		c1.749-4.627,2.505-9.353,2.286-14.122c-0.212-4.771-1.37-9.579-3.109-14.345C90.195,66.291,87.941,61.57,85.365,56.699z"/>
</g>
</svg>
