<?xml version="1.0" standalone="no"?>
<!DOCTYPE svg PUBLIC "-//W3C//DTD SVG 20010904//EN"
 "http://www.w3.org/TR/2001/REC-SVG-20010904/DTD/svg10.dtd">
<svg version="1.0" xmlns="http://www.w3.org/2000/svg"
 width="700.000000pt" height="700.000000pt" viewBox="0 0 700.000000 700.000000"
 preserveAspectRatio="xMidYMid meet">
<metadata>
Created by potrace 1.11, written by Peter Selinger 2001-2013
</metadata>
<g transform="translate(0.000000,700.000000) scale(0.100000,-0.100000)"
fill="#000000" stroke="none">
<path d="M3255 6139 c-33 -4 -87 -10 -120 -13 -33 -3 -71 -8 -85 -11 -14 -3
-38 -7 -55 -10 -64 -11 -82 -15 -160 -34 -83 -20 -235 -66 -270 -80 -11 -5
-51 -21 -90 -36 -411 -163 -825 -478 -1099 -838 -51 -66 -159 -226 -178 -262
-8 -16 -36 -67 -61 -112 -108 -198 -214 -501 -253 -723 -2 -14 -7 -36 -9 -50
-5 -24 -9 -47 -20 -115 -22 -146 -23 -536 0 -653 1 -10 7 -45 11 -77 4 -33 9
-62 9 -65 1 -3 5 -23 10 -45 46 -231 112 -426 215 -642 69 -142 225 -394 283
-455 7 -7 24 -29 39 -48 113 -147 345 -365 528 -495 184 -130 482 -282 655
-334 22 -7 49 -16 60 -21 23 -10 243 -65 295 -74 19 -3 46 -8 60 -11 47 -9
145 -21 245 -30 63 -6 324 -6 385 -1 19 2 67 7 105 10 56 5 263 42 345 61 58
14 211 63 295 95 737 280 1313 886 1561 1640 16 47 29 87 29 90 1 3 12 48 24
100 13 52 25 105 26 117 2 12 6 34 9 50 43 212 51 516 21 783 -13 111 -56 308
-95 437 -189 625 -625 1176 -1190 1504 -79 45 -191 102 -275 139 -27 12 -63
27 -80 35 -82 35 -378 122 -445 130 -14 2 -50 8 -80 14 -30 6 -75 13 -100 16
-25 3 -65 8 -90 11 -68 9 -387 11 -455 3z"/>
</g>
</svg>
