<?xml version="1.0" encoding="utf-8"?>
<!-- Generator: Adobe Illustrator 15.1.0, SVG Export Plug-In . SVG Version: 6.00 Build 0)  -->
<!DOCTYPE svg PUBLIC "-//W3C//DTD SVG 1.1//EN" "http://www.w3.org/Graphics/SVG/1.1/DTD/svg11.dtd">
<svg version="1.1" id="Layer_1" xmlns="http://www.w3.org/2000/svg" xmlns:xlink="http://www.w3.org/1999/xlink" x="0px" y="0px"
	 width="79.2px" height="79.2px" viewBox="0 0 79.2 79.2" enable-background="new 0 0 79.2 79.2" xml:space="preserve">
<g>
	<g opacity="0.6">
		<path fill="#010101" d="M39.601,4.5C20.246,4.5,4.5,20.246,4.5,39.601C4.5,58.954,20.246,74.7,39.601,74.7
			c19.354,0,35.1-15.746,35.1-35.099C74.701,20.246,58.955,4.5,39.601,4.5z M57.73,40.891l-25.75,15.25
			c-0.236,0.139-0.5,0.209-0.766,0.209c-0.256,0-0.512-0.066-0.742-0.197c-0.469-0.268-0.758-0.764-0.758-1.303V24.351
			c0-0.539,0.289-1.037,0.758-1.303c0.469-0.268,1.043-0.262,1.508,0.012l25.75,15.25c0.455,0.27,0.734,0.76,0.734,1.291
			C58.464,40.13,58.185,40.62,57.73,40.891z"/>
	</g>
	<path fill="#FFFFFF" d="M39.601,78C18.427,78,1.2,60.774,1.2,39.6c0-21.174,17.227-38.4,38.4-38.4C60.775,1.2,78,18.426,78,39.6
		C78,60.774,60.775,78,39.601,78z M39.601,4.5C20.246,4.5,4.5,20.246,4.5,39.6s15.746,35.1,35.101,35.1
		c19.354,0,35.1-15.746,35.1-35.1S58.955,4.5,39.601,4.5z"/>
	<path fill="#DF1F26" d="M31.214,56.35c-0.256,0-0.512-0.066-0.742-0.197c-0.469-0.268-0.758-0.764-0.758-1.303v-30.5
		c0-0.539,0.289-1.036,0.758-1.303c0.469-0.268,1.043-0.261,1.508,0.012l25.75,15.25c0.455,0.271,0.734,0.761,0.734,1.291
		s-0.279,1.02-0.734,1.292l-25.75,15.25C31.743,56.28,31.479,56.35,31.214,56.35z"/>
</g>
</svg>
