<?xml version="1.0" encoding="utf-8"?>
<!-- Generator: Adobe Illustrator 15.1.0, SVG Export Plug-In . SVG Version: 6.00 Build 0)  -->
<!DOCTYPE svg PUBLIC "-//W3C//DTD SVG 1.1//EN" "http://www.w3.org/Graphics/SVG/1.1/DTD/svg11.dtd">
<svg version="1.1" id="Layer_1" xmlns="http://www.w3.org/2000/svg" xmlns:xlink="http://www.w3.org/1999/xlink" x="0px" y="0px"
	 width="79.2px" height="79.2px" viewBox="0 0 79.2 79.2" enable-background="new 0 0 79.2 79.2" xml:space="preserve">
<g>
	<path opacity="0.2" fill="#FFFFFF" d="M39.6,78c-21.174,0-38.4-17.227-38.4-38.4S18.426,1.2,39.6,1.2S78,18.425,78,39.599
		S60.774,78,39.6,78z M39.6,4.499C20.246,4.499,4.5,20.245,4.5,39.599s15.746,35.1,35.101,35.1s35.101-15.745,35.101-35.1
		S58.955,4.499,39.6,4.499z"/>
	<path opacity="0.2" fill="#FFFFFF" d="M31.213,56.349c-0.256,0-0.512-0.065-0.742-0.197c-0.469-0.267-0.758-0.764-0.758-1.303
		v-30.5c0-0.539,0.289-1.036,0.758-1.303c0.469-0.268,1.043-0.261,1.508,0.012l25.75,15.25c0.455,0.271,0.734,0.761,0.734,1.291
		s-0.279,1.021-0.734,1.291l-25.75,15.25C31.743,56.279,31.479,56.349,31.213,56.349z"/>
	<g opacity="0.1">
		<path fill="#010101" d="M39.6,4.499C20.246,4.499,4.5,20.245,4.5,39.6c0,19.354,15.746,35.1,35.101,35.1
			s35.101-15.746,35.101-35.1C74.701,20.245,58.955,4.499,39.6,4.499z M57.729,40.891l-25.75,15.25
			c-0.236,0.139-0.5,0.209-0.766,0.209c-0.256,0-0.512-0.066-0.742-0.197c-0.469-0.268-0.758-0.764-0.758-1.303v-30.5
			c0-0.539,0.289-1.037,0.758-1.303c0.469-0.268,1.043-0.262,1.508,0.012l25.75,15.25c0.455,0.27,0.734,0.76,0.734,1.291
			C58.463,40.129,58.184,40.62,57.729,40.891z"/>
	</g>
</g>
</svg>
