<?xml version="1.0" encoding="utf-8"?>
<!-- Generator: Adobe Illustrator 15.1.0, SVG Export Plug-In . SVG Version: 6.00 Build 0)  -->
<!DOCTYPE svg PUBLIC "-//W3C//DTD SVG 1.1//EN" "http://www.w3.org/Graphics/SVG/1.1/DTD/svg11.dtd">
<svg version="1.1" id="Layer_1" xmlns="http://www.w3.org/2000/svg" xmlns:xlink="http://www.w3.org/1999/xlink" x="0px" y="0px"
	 width="43.2px" height="43.2px" viewBox="0 0 43.2 43.2" enable-background="new 0 0 43.2 43.2" xml:space="preserve">
<g>
	<path fill="#FFFFFF" d="M21.601,5.85c-8.685,0-15.75,7.065-15.75,15.75c0,8.684,7.065,15.75,15.75,15.75
		c8.684,0,15.748-7.066,15.748-15.75C37.349,12.915,30.285,5.85,21.601,5.85z M21.601,34.35c-7.031,0-12.75-5.721-12.75-12.75
		c0-7.03,5.72-12.75,12.75-12.75c7.029,0,12.748,5.72,12.748,12.75C34.349,28.629,28.63,34.35,21.601,34.35z"/>
	<polygon fill="#FFFFFF" points="19.101,23.334 15.981,20.398 13.72,22.801 19.179,27.942 30.023,17.012 27.679,14.688 	"/>
</g>
</svg>
