<?xml version="1.0" encoding="utf-8"?>
<!-- Generator: Adobe Illustrator 15.1.0, SVG Export Plug-In . SVG Version: 6.00 Build 0)  -->
<!DOCTYPE svg PUBLIC "-//W3C//DTD SVG 1.1//EN" "http://www.w3.org/Graphics/SVG/1.1/DTD/svg11.dtd">
<svg version="1.1" id="Layer_1" xmlns="http://www.w3.org/2000/svg" xmlns:xlink="http://www.w3.org/1999/xlink" x="0px" y="0px"
	 width="43.2px" height="43.2px" viewBox="0 0 43.2 43.2" enable-background="new 0 0 43.2 43.2" xml:space="preserve">
<g>
	<path fill="#FFFFFF" d="M22.182,6.385c-8.685,0-15.75,7.065-15.75,15.75c0,8.683,7.065,15.75,15.75,15.75
		c8.684,0,15.749-7.066,15.749-15.75C37.93,13.451,30.866,6.385,22.182,6.385z M22.182,34.885c-7.03,0-12.75-5.721-12.75-12.75
		c0-7.031,5.72-12.75,12.75-12.75c7.03,0,12.749,5.72,12.749,12.75C34.93,29.165,29.211,34.885,22.182,34.885z"/>
	<polygon fill="#FFFFFF" points="19.682,23.87 16.562,20.934 14.301,23.336 19.76,28.477 30.604,17.547 28.26,15.223 	"/>
</g>
</svg>
