<?xml version="1.0" encoding="utf-8"?>
<!-- Generator: Adobe Illustrator 15.1.0, SVG Export Plug-In . SVG Version: 6.00 Build 0)  -->
<!DOCTYPE svg PUBLIC "-//W3C//DTD SVG 1.1//EN" "http://www.w3.org/Graphics/SVG/1.1/DTD/svg11.dtd">
<svg version="1.1" id="Layer_1" xmlns="http://www.w3.org/2000/svg" xmlns:xlink="http://www.w3.org/1999/xlink" x="0px" y="0px"
	 width="575px" height="122px" viewBox="0 0 575 122" enable-background="new 0 0 575 122" xml:space="preserve">
<g>
	<rect x="0.517" y="-0.511" fill="#449ACD" width="575.279" height="123.021"/>
	<rect x="140.531" y="-0.511" fill="#78BBDD" width="2.625" height="123.021"/>
	<rect x="0.517" y="-0.511" fill="#78BBDD" width="2.625" height="123.021"/>
	<rect x="2.458" y="-0.342" fill="#78BBDD" width="573.338" height="2.625"/>
	<rect x="0.517" y="119.283" fill="#287FB9" width="575.279" height="3.229"/>
	<rect x="138.094" y="-0.511" fill="#287FB9" width="2.625" height="123.021"/>
	<path fill="#FFFFFF" d="M91.49,98.777l-0.167-29.66l-8.485-0.148V56.473h8.461V43.846c0,0-0.261-10.934,9.502-11.324h14.449v11.715
		h-11.585v11.845h11.585v12.886h-12.626v29.81H91.49z"/>
	<g>
		<path fill="#FFFFFF" d="M294.911,70.712c1.053,0.675,2.563,1.188,4.185,1.188c2.401,0,3.805-1.27,3.805-3.104
			c0-1.673-0.971-2.672-3.428-3.59c-2.97-1.08-4.805-2.646-4.805-5.183c0-2.834,2.35-4.94,5.885-4.94
			c1.836,0,3.213,0.432,3.994,0.891l-0.646,1.917c-0.566-0.351-1.781-0.864-3.428-0.864c-2.484,0-3.43,1.484-3.43,2.726
			c0,1.701,1.107,2.537,3.617,3.509c3.076,1.188,4.615,2.672,4.615,5.344c0,2.809-2.051,5.265-6.344,5.265
			c-1.755,0-3.67-0.54-4.643-1.188L294.911,70.712z"/>
		<path fill="#FFFFFF" d="M311.083,56.838c0,0.81-0.567,1.458-1.512,1.458c-0.864,0-1.432-0.648-1.432-1.458
			s0.595-1.485,1.484-1.485C310.488,55.354,311.083,56.001,311.083,56.838z M308.438,73.574V60.509h2.375v13.064L308.438,73.574
			L308.438,73.574z"/>
		<path fill="#FFFFFF" d="M325.931,71.657c0,3.022-0.621,4.832-1.861,5.991c-1.296,1.162-3.132,1.566-4.778,1.566
			c-1.565,0-3.293-0.378-4.346-1.08l0.594-1.836c0.864,0.567,2.214,1.053,3.833,1.053c2.43,0,4.211-1.269,4.211-4.588v-1.431h-0.054
			c-0.702,1.214-2.133,2.187-4.157,2.187c-3.239,0-5.562-2.754-5.562-6.371c0-4.426,2.89-6.909,5.912-6.909
			c2.268,0,3.481,1.161,4.075,2.239h0.055l0.081-1.97h2.105c-0.081,0.917-0.108,1.998-0.108,3.563V71.657z M323.556,65.665
			c0-0.405-0.026-0.756-0.136-1.054c-0.432-1.403-1.564-2.537-3.319-2.537c-2.268,0-3.888,1.917-3.888,4.939
			c0,2.564,1.323,4.697,3.86,4.697c1.483,0,2.808-0.918,3.293-2.43c0.135-0.405,0.188-0.864,0.188-1.27L323.556,65.665
			L323.556,65.665z"/>
		<path fill="#FFFFFF" d="M329.688,64.045c0-1.377-0.027-2.457-0.108-3.536h2.104l0.136,2.159h0.055
			c0.647-1.214,2.159-2.429,4.318-2.429c1.809,0,4.615,1.08,4.615,5.561v7.774h-2.376v-7.531c0-2.105-0.781-3.859-3.021-3.859
			c-1.539,0-2.754,1.106-3.187,2.43c-0.107,0.297-0.161,0.701-0.161,1.105v7.855h-2.375V64.045z"/>
		<path fill="#FFFFFF" d="M353.041,56.838c0,0.81-0.567,1.458-1.512,1.458c-0.864,0-1.432-0.648-1.432-1.458
			s0.595-1.485,1.484-1.485C352.446,55.354,353.041,56.001,353.041,56.838z M350.396,73.574V60.509h2.375v13.064L350.396,73.574
			L350.396,73.574z"/>
		<path fill="#FFFFFF" d="M356.713,64.045c0-1.377-0.027-2.457-0.107-3.536h2.104l0.135,2.159h0.056
			c0.646-1.214,2.158-2.429,4.317-2.429c1.81,0,4.616,1.08,4.616,5.561v7.774h-2.376v-7.531c0-2.105-0.782-3.859-3.022-3.859
			c-1.538,0-2.754,1.106-3.186,2.43c-0.108,0.297-0.162,0.701-0.162,1.105v7.855h-2.375V64.045z"/>
		<path fill="#FFFFFF" d="M378.366,60.509l1.755,6.64c0.351,1.459,0.701,2.808,0.944,4.158h0.081
			c0.297-1.322,0.729-2.727,1.16-4.131l2.133-6.667h1.997l2.024,6.532c0.485,1.564,0.863,2.941,1.16,4.266h0.081
			c0.216-1.322,0.566-2.699,0.999-4.238l1.861-6.56h2.35l-4.211,13.064h-2.159l-1.998-6.235c-0.459-1.458-0.837-2.753-1.16-4.292
			h-0.055c-0.323,1.565-0.729,2.916-1.188,4.319l-2.104,6.208h-2.159l-3.94-13.064H378.366L378.366,60.509z"/>
		<path fill="#FFFFFF" d="M399.938,56.838c0,0.81-0.566,1.458-1.512,1.458c-0.864,0-1.431-0.648-1.431-1.458
			s0.594-1.485,1.483-1.485C399.344,55.354,399.938,56.001,399.938,56.838z M397.293,73.574V60.509h2.375v13.064L397.293,73.574
			L397.293,73.574z"/>
		<path fill="#FFFFFF" d="M406.473,57.378v3.131h3.4v1.81h-3.4v7.045c0,1.619,0.459,2.537,1.781,2.537
			c0.647,0,1.025-0.053,1.377-0.161l0.107,1.809c-0.459,0.162-1.188,0.324-2.105,0.324c-1.105,0-1.997-0.378-2.563-0.999
			c-0.647-0.729-0.917-1.891-0.917-3.428v-7.127h-2.024V60.51h2.024v-2.43L406.473,57.378z"/>
		<path fill="#FFFFFF" d="M412.548,54.409h2.375v8.179h0.054c0.379-0.675,0.973-1.296,1.701-1.701
			c0.701-0.405,1.538-0.648,2.43-0.648c1.755,0,4.562,1.08,4.562,5.561v7.774h-2.376V66.07c0-2.105-0.782-3.86-3.022-3.86
			c-1.538,0-2.727,1.08-3.186,2.349c-0.135,0.351-0.162,0.701-0.162,1.133v7.883h-2.375V54.409L412.548,54.409z"/>
		<path fill="#FFFFFF" d="M433.095,55.38h11.095v3.375h-6.991v4.157h6.532v3.347h-6.532v7.315h-4.104V55.38z"/>
		<path fill="#FFFFFF" d="M457.095,70.389c0,1.242,0.055,2.456,0.216,3.186h-3.697l-0.243-1.323h-0.081
			c-0.863,1.054-2.213,1.62-3.778,1.62c-2.673,0-4.265-1.943-4.265-4.049c0-3.428,3.077-5.049,7.746-5.049v-0.162
			c0-0.729-0.378-1.728-2.402-1.728c-1.35,0-2.78,0.458-3.644,0.999l-0.757-2.646c0.919-0.513,2.728-1.188,5.13-1.188
			c4.398,0,5.775,2.592,5.775,5.723V70.389L457.095,70.389z M453.127,67.338c-2.16,0-3.833,0.514-3.833,2.079
			c0,1.053,0.701,1.565,1.619,1.565c0.999,0,1.862-0.676,2.133-1.513c0.054-0.216,0.081-0.459,0.081-0.702V67.338L453.127,67.338z"
			/>
		<path fill="#FFFFFF" d="M470.271,73.223c-0.729,0.352-2.105,0.621-3.672,0.621c-4.265,0-6.99-2.617-6.99-6.749
			c0-3.86,2.646-7.018,7.559-7.018c1.079,0,2.267,0.189,3.131,0.513l-0.647,3.051c-0.485-0.217-1.214-0.406-2.294-0.406
			c-2.159,0-3.563,1.539-3.536,3.699c0,2.401,1.62,3.697,3.616,3.697c0.973,0,1.729-0.162,2.35-0.432L470.271,73.223z"/>
		<path fill="#FFFFFF" d="M475.402,68.283c0.107,1.701,1.809,2.51,3.725,2.51c1.404,0,2.538-0.189,3.646-0.566l0.54,2.779
			c-1.351,0.567-2.996,0.837-4.778,0.837c-4.48,0-7.045-2.591-7.045-6.721c0-3.347,2.078-7.045,6.667-7.045
			c4.266,0,5.885,3.319,5.885,6.586c0,0.702-0.081,1.323-0.135,1.62H475.402z M480.234,65.477c0-1-0.434-2.672-2.321-2.672
			c-1.729,0-2.43,1.592-2.538,2.672H480.234z"/>
		<path fill="#FFFFFF" d="M486.5,54.409h4.103v7.53h0.056c0.782-1.133,2.159-1.862,3.995-1.862c3.157,0,5.452,2.618,5.425,6.667
			c0,4.75-2.996,7.126-6.021,7.126c-1.538,0-3.05-0.567-3.968-2.132h-0.054l-0.162,1.835h-3.481
			c0.055-0.864,0.107-2.457,0.107-3.941V54.409L486.5,54.409z M490.603,67.959c0,0.27,0.027,0.514,0.081,0.729
			c0.271,1.08,1.216,1.943,2.402,1.943c1.755,0,2.835-1.35,2.835-3.725c0-2.053-0.918-3.672-2.835-3.672
			c-1.105,0-2.132,0.838-2.402,2.024c-0.054,0.243-0.081,0.486-0.081,0.757V67.959z"/>
		<path fill="#FFFFFF" d="M515.764,66.826c0,4.832-3.428,7.045-6.964,7.045c-3.858,0-6.829-2.537-6.829-6.803
			c0-4.291,2.809-7.018,7.072-7.018C513.064,60.05,515.764,62.831,515.764,66.826z M506.209,66.96c0,2.269,0.944,3.968,2.699,3.968
			c1.619,0,2.618-1.592,2.618-3.994c0-1.943-0.757-3.941-2.618-3.941C506.965,62.993,506.209,65.018,506.209,66.96z"/>
		<path fill="#FFFFFF" d="M531.424,66.826c0,4.832-3.428,7.045-6.964,7.045c-3.859,0-6.829-2.537-6.829-6.803
			c0-4.291,2.809-7.018,7.072-7.018C528.725,60.05,531.424,62.831,531.424,66.826z M521.869,66.96c0,2.269,0.943,3.968,2.699,3.968
			c1.619,0,2.617-1.592,2.617-3.994c0-1.943-0.756-3.941-2.617-3.941C522.625,62.993,521.869,65.018,521.869,66.96z"/>
		<path fill="#FFFFFF" d="M538.068,65.936h0.055c0.297-0.567,0.62-1.106,0.944-1.593l2.673-3.968h4.938l-4.724,5.345l5.397,7.855
			h-5.048l-3.212-5.427l-1.025,1.297v4.13h-4.104V54.409h4.104L538.068,65.936L538.068,65.936z"/>
	</g>
	<rect x="573.171" y="-0.511" fill="#287FB9" width="2.625" height="123.021"/>
</g>
</svg>
