<?xml version="1.0" encoding="utf-8"?>
<!-- Generator: Adobe Illustrator 15.1.0, SVG Export Plug-In . SVG Version: 6.00 Build 0)  -->
<!DOCTYPE svg PUBLIC "-//W3C//DTD SVG 1.1//EN" "http://www.w3.org/Graphics/SVG/1.1/DTD/svg11.dtd">
<svg version="1.1" id="Layer_1" xmlns="http://www.w3.org/2000/svg" xmlns:xlink="http://www.w3.org/1999/xlink" x="0px" y="0px"
	 width="575px" height="122px" viewBox="0 0 575 122" enable-background="new 0 0 575 122" xml:space="preserve">
<g>
	<rect y="-1.022" fill="#E74C3D" width="575.279" height="123.022"/>
	<rect x="140.015" y="-1.022" fill="#EA6653" width="2.625" height="123.022"/>
	<rect y="-1.022" fill="#EB6653" width="2.625" height="123.022"/>
	<rect x="1.941" y="-0.854" fill="#EA6653" width="573.338" height="2.625"/>
	<rect y="118.771" fill="#D14237" width="575.279" height="3.229"/>
	<rect x="137.577" y="-1.022" fill="#D14237" width="2.625" height="123.022"/>
	<rect x="572.64" y="-1.022" fill="#D14237" width="2.625" height="123.022"/>
	<g>
		<path fill="#FFFFFF" d="M303.895,70.201c1.053,0.675,2.563,1.188,4.184,1.188c2.402,0,3.806-1.269,3.806-3.104
			c0-1.673-0.972-2.672-3.428-3.59c-2.97-1.08-4.805-2.646-4.805-5.183c0-2.834,2.349-4.94,5.885-4.94
			c1.835,0,3.212,0.432,3.994,0.891l-0.647,1.917c-0.566-0.351-1.781-0.864-3.428-0.864c-2.483,0-3.429,1.484-3.429,2.726
			c0,1.701,1.107,2.537,3.617,3.509c3.077,1.188,4.616,2.672,4.616,5.344c0,2.808-2.052,5.264-6.344,5.264
			c-1.755,0-3.671-0.54-4.643-1.188L303.895,70.201z"/>
		<path fill="#FFFFFF" d="M320.066,56.327c0,0.81-0.567,1.458-1.512,1.458c-0.864,0-1.431-0.648-1.431-1.458
			c0-0.81,0.594-1.485,1.484-1.485C319.472,54.842,320.066,55.49,320.066,56.327z M317.421,73.062V59.998h2.375v13.064H317.421z"/>
		<path fill="#FFFFFF" d="M334.914,71.146c0,3.023-0.621,4.832-1.862,5.992c-1.296,1.161-3.132,1.566-4.778,1.566
			c-1.565,0-3.293-0.378-4.346-1.08l0.594-1.836c0.864,0.567,2.214,1.053,3.833,1.053c2.43,0,4.211-1.269,4.211-4.588v-1.431h-0.054
			c-0.702,1.214-2.133,2.186-4.157,2.186c-3.239,0-5.561-2.753-5.561-6.37c0-4.427,2.889-6.91,5.912-6.91
			c2.267,0,3.481,1.161,4.075,2.24h0.055l0.081-1.97h2.105c-0.081,0.917-0.108,1.998-0.108,3.563V71.146z M332.539,65.154
			c0-0.405-0.027-0.756-0.136-1.053c-0.432-1.404-1.565-2.538-3.319-2.538c-2.268,0-3.888,1.917-3.888,4.94
			c0,2.564,1.323,4.697,3.86,4.697c1.484,0,2.808-0.918,3.293-2.43c0.135-0.405,0.189-0.864,0.189-1.269V65.154z"/>
		<path fill="#FFFFFF" d="M338.67,63.534c0-1.377-0.027-2.457-0.108-3.536h2.105l0.135,2.159h0.055
			c0.647-1.214,2.159-2.429,4.318-2.429c1.809,0,4.616,1.08,4.616,5.561v7.774h-2.376v-7.531c0-2.105-0.782-3.86-3.022-3.86
			c-1.539,0-2.754,1.107-3.186,2.43c-0.108,0.297-0.162,0.702-0.162,1.106v7.855h-2.375V63.534z"/>
		<path fill="#FFFFFF" d="M362.024,56.327c0,0.81-0.567,1.458-1.512,1.458c-0.864,0-1.431-0.648-1.431-1.458
			c0-0.81,0.594-1.485,1.484-1.485C361.43,54.842,362.024,55.49,362.024,56.327z M359.379,73.062V59.998h2.375v13.064H359.379z"/>
		<path fill="#FFFFFF" d="M365.696,63.534c0-1.377-0.027-2.457-0.108-3.536h2.105l0.135,2.159h0.055
			c0.647-1.214,2.159-2.429,4.318-2.429c1.809,0,4.616,1.08,4.616,5.561v7.774h-2.376v-7.531c0-2.105-0.782-3.86-3.022-3.86
			c-1.539,0-2.754,1.107-3.186,2.43c-0.108,0.297-0.162,0.702-0.162,1.106v7.855h-2.375V63.534z"/>
		<path fill="#FFFFFF" d="M387.35,59.998l1.755,6.64c0.351,1.458,0.701,2.807,0.944,4.157h0.081c0.297-1.322,0.729-2.726,1.161-4.13
			l2.132-6.667h1.998l2.024,6.532c0.485,1.565,0.863,2.942,1.16,4.265h0.081c0.216-1.322,0.567-2.699,0.999-4.238l1.862-6.559h2.349
			l-4.211,13.064h-2.159l-1.998-6.235c-0.459-1.458-0.837-2.753-1.16-4.292h-0.055c-0.323,1.566-0.729,2.916-1.188,4.319
			l-2.105,6.208h-2.159l-3.94-13.064H387.35z"/>
		<path fill="#FFFFFF" d="M408.922,56.327c0,0.81-0.567,1.458-1.512,1.458c-0.864,0-1.431-0.648-1.431-1.458
			c0-0.81,0.594-1.485,1.484-1.485C408.327,54.842,408.922,55.49,408.922,56.327z M406.276,73.062V59.998h2.375v13.064H406.276z"/>
		<path fill="#FFFFFF" d="M415.456,56.867v3.131h3.4v1.809h-3.4v7.045c0,1.62,0.459,2.538,1.781,2.538
			c0.647,0,1.025-0.054,1.377-0.162l0.107,1.809c-0.459,0.162-1.188,0.324-2.105,0.324c-1.106,0-1.997-0.378-2.564-0.999
			c-0.647-0.729-0.917-1.89-0.917-3.428v-7.126h-2.024v-1.809h2.024v-2.429L415.456,56.867z"/>
		<path fill="#FFFFFF" d="M421.531,53.897h2.375v8.179h0.054c0.378-0.675,0.972-1.296,1.701-1.701
			c0.701-0.405,1.538-0.648,2.429-0.648c1.755,0,4.562,1.08,4.562,5.561v7.774h-2.376v-7.504c0-2.105-0.782-3.86-3.022-3.86
			c-1.539,0-2.727,1.08-3.186,2.348c-0.135,0.351-0.162,0.702-0.162,1.134v7.882h-2.375V53.897z"/>
		<path fill="#FFFFFF" d="M457.248,72.226c-1.269,0.432-3.671,1.026-6.073,1.026c-3.32,0-5.723-0.837-7.396-2.429
			c-1.646-1.593-2.564-3.968-2.564-6.641c0.027-6.046,4.427-9.501,10.393-9.501c2.349,0,4.157,0.459,5.048,0.864l-0.864,3.32
			c-0.998-0.459-2.213-0.783-4.211-0.783c-3.428,0-6.046,1.917-6.046,5.884c0,3.779,2.375,5.965,5.749,5.965
			c0.918,0,1.674-0.108,1.998-0.243v-3.833h-2.808v-3.212h6.775V72.226z"/>
		<path fill="#FFFFFF" d="M473.528,66.314c0,4.832-3.428,7.045-6.964,7.045c-3.859,0-6.829-2.537-6.829-6.802
			c0-4.292,2.808-7.018,7.072-7.018C470.829,59.539,473.528,62.319,473.528,66.314z M463.974,66.449
			c0,2.268,0.944,3.968,2.699,3.968c1.619,0,2.618-1.592,2.618-3.995c0-1.943-0.756-3.941-2.618-3.941
			C464.729,62.481,463.974,64.506,463.974,66.449z"/>
		<path fill="#FFFFFF" d="M489.188,66.314c0,4.832-3.428,7.045-6.964,7.045c-3.859,0-6.829-2.537-6.829-6.802
			c0-4.292,2.808-7.018,7.072-7.018C486.489,59.539,489.188,62.319,489.188,66.314z M479.634,66.449
			c0,2.268,0.944,3.968,2.699,3.968c1.619,0,2.618-1.592,2.618-3.995c0-1.943-0.756-3.941-2.618-3.941
			C480.39,62.481,479.634,64.506,479.634,66.449z"/>
		<path fill="#FFFFFF" d="M504.309,71.146c0,2.537-0.513,4.616-2.024,5.938c-1.431,1.242-3.401,1.62-5.345,1.62
			c-1.755,0-3.563-0.351-4.751-0.999l0.81-3.131c0.837,0.486,2.268,0.999,3.833,0.999c1.943,0,3.429-1.026,3.429-3.482v-0.837
			h-0.055c-0.782,1.08-2.051,1.701-3.562,1.701c-3.267,0-5.588-2.646-5.588-6.424c0-4.265,2.727-6.964,5.992-6.964
			c1.809,0,2.942,0.783,3.617,1.89h0.054l0.136-1.593h3.562c-0.054,0.864-0.107,1.971-0.107,3.941V71.146z M500.205,65.234
			c0-0.243-0.026-0.513-0.081-0.755c-0.297-1.08-1.079-1.809-2.213-1.809c-1.512,0-2.699,1.35-2.699,3.752
			c0,1.97,0.972,3.509,2.672,3.509c1.08,0,1.917-0.702,2.187-1.646c0.108-0.324,0.135-0.756,0.135-1.106V65.234z"/>
		<path fill="#FFFFFF" d="M507.605,53.897h4.103v19.165h-4.103V53.897z"/>
		<path fill="#FFFFFF" d="M518.188,67.772c0.108,1.701,1.809,2.51,3.725,2.51c1.404,0,2.538-0.189,3.645-0.567l0.54,2.78
			c-1.35,0.567-2.996,0.837-4.778,0.837c-4.48,0-7.045-2.591-7.045-6.721c0-3.347,2.078-7.045,6.667-7.045
			c4.266,0,5.885,3.32,5.885,6.586c0,0.702-0.081,1.323-0.135,1.62H518.188z M523.021,64.965c0-0.999-0.433-2.672-2.321-2.672
			c-1.728,0-2.43,1.592-2.538,2.672H523.021z"/>
		<path fill="#FFFFFF" d="M537.006,58.702v5.885h5.642v2.51h-5.642v5.965h-2.645v-5.965h-5.642v-2.51h5.642v-5.885H537.006z"/>
	</g>
	<g>
		<path fill="#FFFFFF" d="M63.973,62.538c0,0-14.667,0.168-15.667-11.666c-1-11.833,10.667-15.833,10.667-15.833l25.333-0.833
			c0,0,1.833,0,0,1.334s-3.833,2-3.833,2l-5.167-0.5c0,0,9.833,9.333,3.167,17.5c-6.667,8.167-10.167,9.167-0.5,15.833
			c9.667,6.667,2.834,18.334,1.667,19.5c-1.167,1.167-6,6.667-19.5,6.167s-15.5-8-15.833-11s-0.833-13.667,21.333-13.667
			C65.641,71.372,62.306,67.872,63.973,62.538z"/>
		
			<ellipse transform="matrix(0.959 -0.2835 0.2835 0.959 -11.0923 20.133)" fill="#E74C3D" cx="64.023" cy="48.396" rx="8.565" ry="11.417"/>
		<ellipse fill="#E74C3D" cx="64.67" cy="83.521" rx="13.637" ry="9.686"/>
		<rect x="93.017" y="53.538" fill="#FFFFFF" width="4.5" height="20.298"/>
		<rect x="85.118" y="61.271" fill="#FFFFFF" width="20.298" height="4.5"/>
	</g>
</g>
</svg>
